<svg width="80" height="68" viewBox="0 0 80 68" fill="none" xmlns="http://www.w3.org/2000/svg">
<g filter="url(#filter0_d_8_46)">
<path d="M56.0663 0.740723H23.8446C12.9023 0.740723 4 8.07706 4 17.0941V43.6466C4 52.664 12.9023 60 23.8446 60H56.0663C67.0095 60 75.9118 52.6636 75.9118 43.6466V17.0941C75.9122 8.07706 67.0095 0.740723 56.0663 0.740723ZM69.5318 43.6466C69.5318 49.7649 63.4913 54.7422 56.0667 54.7422H23.8446C16.4204 54.7426 10.3804 49.7649 10.3804 43.6466V17.0941C10.3804 10.9762 16.4204 5.99849 23.8446 5.99849H56.0663C63.4909 5.99849 69.5314 10.9762 69.5314 17.0941V43.6466H69.5318Z" fill="white"/>
<path d="M39.9559 15.1016C29.7384 15.1016 21.426 21.9514 21.426 30.3712C21.426 38.7906 29.7384 45.6401 39.9559 45.6401C50.1734 45.6401 58.4857 38.7906 58.4857 30.3712C58.4857 21.9514 50.1734 15.1016 39.9559 15.1016ZM39.9559 40.382C33.2569 40.382 27.8064 35.8911 27.8064 30.3708C27.8064 24.8502 33.2565 20.359 39.9559 20.359C46.6552 20.359 52.1054 24.8502 52.1054 30.3708C52.1054 35.8911 46.6548 40.382 39.9559 40.382Z" fill="white"/>
<path d="M59.2629 10.6431C58.0336 10.6431 56.826 11.0532 55.9579 11.7717C55.0855 12.4868 54.584 13.4823 54.584 14.4988C54.584 15.5121 55.0859 16.5072 55.9579 17.2258C56.8256 17.9408 58.0336 18.3545 59.2629 18.3545C60.4965 18.3545 61.7002 17.9408 62.5722 17.2258C63.4442 16.5072 63.9418 15.5118 63.9418 14.4988C63.9418 13.4823 63.4442 12.4868 62.5722 11.7717C61.7045 11.0532 60.4965 10.6431 59.2629 10.6431Z" fill="white"/>
</g>
<defs>
<filter id="filter0_d_8_46" x="0" y="0.740723" width="79.9119" height="67.2593" filterUnits="userSpaceOnUse" color-interpolation-filters="sRGB">
<feFlood flood-opacity="0" result="BackgroundImageFix"/>
<feColorMatrix in="SourceAlpha" type="matrix" values="0 0 0 0 0 0 0 0 0 0 0 0 0 0 0 0 0 0 127 0" result="hardAlpha"/>
<feOffset dy="4"/>
<feGaussianBlur stdDeviation="2"/>
<feComposite in2="hardAlpha" operator="out"/>
<feColorMatrix type="matrix" values="0 0 0 0 0 0 0 0 0 0 0 0 0 0 0 0 0 0 0.25 0"/>
<feBlend mode="normal" in2="BackgroundImageFix" result="effect1_dropShadow_8_46"/>
<feBlend mode="normal" in="SourceGraphic" in2="effect1_dropShadow_8_46" result="shape"/>
</filter>
</defs>
</svg>
